<?xml version="1.0" encoding="UTF-8"?>
<svg xmlns="http://www.w3.org/2000/svg" viewBox="0 0 1113 1113" role="img" aria-label="SkyTeam">
  <title>SkyTeam</title>
  <rect width="1113" height="1113" fill="#002677"/>
  <path fill="#4DA6FF" d="M120 420c180-120 420-180 660-120 90 30 150 90 180 150-210-30-420 0-600 90-90 45-165 105-240 180z"/>
  <path fill="#0066CC" d="M90 520c210-150 480-210 750-150 120 45 195 120 225 195-255-45-510 0-735 120-105 60-180 135-240 210z"/>
  <path fill="#3399FF" d="M60 640c240-180 540-240 840-180 135 60 225 150 255 240-285-60-570 0-825 150-120 75-210 165-270 255z"/>
  <text x="556" y="980" text-anchor="middle" fill="#FFFFFF" font-family="Arial, Helvetica, sans-serif" font-size="148" font-weight="700" letter-spacing="12">SKYTEAM</text>
</svg>