<svg xmlns="http://www.w3.org/2000/svg" viewBox="0 0 70 40">
  <path d="M28.246 20.302c.49-.472.903-.882 1.796-2.028.35-.456.526-.71.738-1.035l-.014-.039c-.235.025-.332.03-.498.04-.044.001-.092.004-.15.007a3.662 3.662 0 0 1-.51.896c-.282.399-.587.78-.913 1.143a5.22 5.22 0 0 1-.62.58c-.372-.387-.51-.534-1.316-1.537A17.449 17.449 0 0 1 25.785 17c-.277.14-.568.252-.868.331.19.299.407.58.647.838.12.145.527.65.783.968l.191.237c.381.456.571.657.921 1.02v.773l-.002.11c-.007.246-.013.489-.013.728v.82l.214-.014h.001c.21-.013.33-.021.63-.032-.03-.42-.031-.571-.037-.954l-.002-.106v-1.417h-.004Zm-8.647-.062a54.382 54.382 0 0 0-.069 2.475l-.669.2.015-.172c.006-.066.012-.132.016-.198.019-.286.122-2.797.122-3.5.004-.585-.024-1.17-.084-1.753.256-.008.51-.04.76-.093.37.535.788 1.034 1.25 1.491a106.24 106.24 0 0 0 1.788 1.793c.61.602.677.672 1.15 1.174a9.079 9.079 0 0 1-.053-1.183v-.708c0-1.376-.008-1.63-.046-2.364.234-.047.465-.106.692-.178-.007.7-.013.894-.029 1.371v.001l-.01.312c-.015.51-.03 1.028-.03 1.546 0 .305.008 1.274.06 1.668.012.116.047.23.104.332-.252.156-.354.226-.59.39l-.03.02-.096-.107c-.328-.361-.39-.428-1.122-1.15l-.523-.53c-.571-.578-1.142-1.155-1.708-1.741-.7-.71-.708-.72-.875-.974 0 .113.002.226.004.339l.003.325c0 .238-.006.433-.015.703l-.015.51Zm-7.752 2.525.743.031.022-.045c.172-.35.236-.48.768-1.384.073-.13.15-.259.226-.39a17 17 0 0 0 .155-.267c.305-.533.32-.533.62-.54h1.004c.155.003.31-.005.465-.023a2.11 2.11 0 0 0 .334-.085c.144.298.34.688.533 1.074.177.353.353.704.487.98.235.483.244.518.296.722l.002.005c.262-.1.535-.165.814-.193-.224-.513-.317-.7-1.02-2.107l-.122-.242c-.89-1.792-1.317-2.789-1.331-2.842a.595.595 0 0 1-.054-.217c-.22.032-.44.053-.662.062-.358.896-.875 1.714-1.392 2.526l-.117.183c-.18.284-.358.564-.546.844l-.045.065c-.168.24-.335.481-.495.731-.247.359-.476.73-.685 1.112ZM8.03 17.56l.48-.008-.031 4.983L8 22.54v.239h.02c1.183-.015 2.084-.026 2.887-.524.418-.247.684-.564.684-.965s-.28-.866-.745-1.19a4.09 4.09 0 0 0-.586-.315c.54-.255 1.217-.641 1.217-1.337 0-.587-.455-.912-.66-1.02-.244-.115-.496-.152-1.174-.152-.646 0-1.015.02-1.552.049l-.077.004.016.217v.012Zm1.278.014c.32-.007.73-.015 1.05.314.205.22.327.505.344.806 0 .641-.754 1.097-1.033 1.245-.06.03-.16.085-.16.177 0 .092.076.116.121.13.042.017.085.03.127.044.041.014.083.027.125.043.694.27.937.838.937 1.16 0 .285-.153.524-.449.695-.354.207-.774.246-1.107.277l-.013.001c.023-2.736.03-3.362.061-4.892h-.003Zm6.021.527.084.203c.187.45.3.725.655 1.504-.199.07-.328.105-.808.105-.22 0-.501 0-.722-.015-.145-.008-.207-.015-.207-.093.026-.083.061-.163.104-.239.27-.505.568-.995.89-1.467l.005.002Zm14.868 4.696.017-.034c.176-.36.237-.482.775-1.395.075-.133.153-.266.232-.401l.148-.256c.304-.533.32-.533.619-.54h1.005c.155.003.31-.005.464-.023.114-.02.225-.048.335-.085.15.312.356.724.558 1.127.169.335.334.665.462.927.235.487.243.518.296.727.262-.1.536-.165.814-.193-.217-.5-.312-.69-.968-2.002l-.173-.347c-.89-1.792-1.317-2.789-1.332-2.842a.616.616 0 0 1-.054-.217c-.22.032-.44.053-.662.062-.357.896-.875 1.714-1.392 2.526l-.136.215-.002.002c-.173.272-.343.541-.524.81l-.048.069c-.166.24-.333.479-.493.727-.246.359-.475.73-.684 1.112l.743.031Zm2.74-4.696.073.176c.194.467.305.737.665 1.531-.197.07-.327.105-.806.105-.221 0-.503 0-.723-.015-.144-.008-.206-.015-.206-.093.025-.083.06-.163.103-.239.27-.505.567-.995.89-1.467l.004.002Zm4.27 2.14a54.274 54.274 0 0 0-.069 2.479v-.004l-.67.2.015-.184c.006-.062.012-.124.015-.186.019-.286.122-2.797.122-3.5.004-.585-.024-1.17-.083-1.753.255-.008.51-.04.76-.093.37.535.788 1.035 1.248 1.491.29.302 1.356 1.374 1.79 1.793.609.602.678.672 1.15 1.174a9.222 9.222 0 0 1-.054-1.183v-.708c0-1.376-.007-1.63-.045-2.364.233-.046.464-.106.691-.178-.006.68-.012.883-.027 1.331l-.011.353-.002.078c-.014.485-.028.976-.028 1.468 0 .305.007 1.274.06 1.668.012.116.047.23.104.332-.24.148-.342.219-.556.366l-.063.044-.094-.104c-.33-.364-.389-.43-1.124-1.154a486.01 486.01 0 0 0-.595-.602l-.002-.002c-.546-.553-1.092-1.106-1.634-1.666-.7-.71-.707-.72-.876-.974 0 .113.002.227.005.339.002.11.004.219.004.325 0 .232-.007.422-.015.68v.002l-.016.532Zm7.392-2.7c.296.076.6.11.905.105.42 0 .64 0 1.081.024l.003.207a118.883 118.883 0 0 1 .008 2.797l-.003.5c0 .874 0 .974-.038 1.608.285-.009.57.002.852.031-.024-.524-.03-.838-.03-1.236 0-.143.003-.535.007-.918.004-.367.008-.727.008-.852 0-1.081 0-1.198.015-2.1.89.014 1.073.006 1.628-.055l.297-.455-.022-.023c-.488.14-1.27.158-2.33.158-.44 0-.905 0-1.392-.038a3.906 3.906 0 0 1-.738-.104l-.25.352Zm5.343 0h-.433l.006-.003v-.21c.154-.011.308-.02.463-.03.166-.01.333-.02.502-.032l.025-.001c.263-.014.535-.03.801-.03.275 0 1.174 0 1.69.54a.79.79 0 0 1 .238.59c0 .273-.099.726-.661 1.32a2.382 2.382 0 0 1-.853.611c1.24 1.198 1.666 1.584 2.512 2.156l-.701.494a24.76 24.76 0 0 1-1.217-1.047 20.044 20.044 0 0 1-1.508-1.507l.03-.007c.366-.083.794-.18 1.15-.564.19-.201.404-.526.404-.75 0-.418-.106-.845-.404-1.16-.38-.385-.83-.385-1.165-.385-.063.484-.097.971-.103 1.46-.01.468-.014.931-.018 1.397l-.005.65-.002.174c-.008.513-.015 1.02-.029 1.534l-.859.062c.073-.629.113-1.26.122-1.894.023-.671.045-1.53.045-2.147 0-.425-.011-.726-.024-1.08l-.006-.14Zm7.929 4.706-.092-.084c-.331.213-.529.215-1.248.224h-1.012l.09-2.218h.937c.265-.007.53.009.792.046l.487-.587-.06-.062c-.382.124-.587.155-1.112.155H55.62l.03-2.041c.104 0 .208-.002.313-.004l.312-.003c.297 0 .555.007.913.031l.472-.355-.038-.105c-.274.062-.533.115-1.342.115a13.1 13.1 0 0 1-.853-.023l-.246-.014c-.156-.008-.31-.017-.476-.032.074.322.12.65.137.981a27.92 27.92 0 0 1-.068 3.373c-.046.524-.07.733-.145 1.19.456-.07.916-.1 1.376-.093.31 0 .656 0 .945.023.124.01.246.033.365.07l.556-.587Zm4.038-.084.091.084-.01-.007-.556.586a1.777 1.777 0 0 0-.365-.07c-.29-.022-.634-.022-.944-.022a8.232 8.232 0 0 0-1.377.092c.077-.456.1-.666.145-1.19a27.898 27.898 0 0 0 .069-3.372 5.767 5.767 0 0 0-.137-.981c.164.015.319.023.474.032l.248.014c.243.016.51.023.852.023.814 0 1.073-.053 1.347-.115l.038.104-.471.356a12.637 12.637 0 0 0-1.224-.028c-.103.002-.206.004-.31.004l-.03 2.04h1.032c.524 0 .73-.03 1.11-.154l.062.061-.488.587a4.778 4.778 0 0 0-.792-.046h-.936l-.089 2.226h1.012c.72-.009.917-.01 1.25-.224Z"/>
</svg>
