<?xml version="1.0" encoding="UTF-8" standalone="no"?>
<!-- Created with Inkscape (http://www.inkscape.org/) -->

<svg
   xmlns:dc="http://purl.org/dc/elements/1.1/"
   xmlns:cc="http://creativecommons.org/ns#"
   xmlns:rdf="http://www.w3.org/1999/02/22-rdf-syntax-ns#"
   xmlns:svg="http://www.w3.org/2000/svg"
   xmlns="http://www.w3.org/2000/svg"
   xmlns:sodipodi="http://sodipodi.sourceforge.net/DTD/sodipodi-0.dtd"
   xmlns:inkscape="http://www.inkscape.org/namespaces/inkscape"
   width="650"
   height="306.42371"
   id="svg2"
   version="1.1"
   inkscape:version="0.47 r22583"
   sodipodi:docname="Novi dokument 1">
  <defs
     id="defs4" />
  <sodipodi:namedview
     id="base"
     pagecolor="#ffffff"
     bordercolor="#666666"
     borderopacity="1.0"
     inkscape:pageopacity="0.0"
     inkscape:pageshadow="2"
     inkscape:zoom="1.4215384"
     inkscape:cx="325.00001"
     inkscape:cy="153.21186"
     inkscape:document-units="px"
     inkscape:current-layer="layer1"
     showgrid="false"
     inkscape:window-width="1024"
     inkscape:window-height="749"
     inkscape:window-x="-4"
     inkscape:window-y="-4"
     inkscape:window-maximized="1" />
  <metadata
     id="metadata7">
    <rdf:RDF>
      <cc:Work
         rdf:about="">
        <dc:format>image/svg+xml</dc:format>
        <dc:type
           rdf:resource="http://purl.org/dc/dcmitype/StillImage" />
        <dc:title></dc:title>
        <cc:license
           rdf:resource="http://creativecommons.org/licenses/by-sa/3.0/" />
      </cc:Work>
      <cc:License
         rdf:about="http://creativecommons.org/licenses/by-sa/3.0/">
        <cc:permits
           rdf:resource="http://creativecommons.org/ns#Reproduction" />
        <cc:permits
           rdf:resource="http://creativecommons.org/ns#Distribution" />
        <cc:requires
           rdf:resource="http://creativecommons.org/ns#Notice" />
        <cc:requires
           rdf:resource="http://creativecommons.org/ns#Attribution" />
        <cc:permits
           rdf:resource="http://creativecommons.org/ns#DerivativeWorks" />
        <cc:requires
           rdf:resource="http://creativecommons.org/ns#ShareAlike" />
      </cc:License>
    </rdf:RDF>
  </metadata>
  <g
     inkscape:label="Layer 1"
     inkscape:groupmode="layer"
     id="layer1"
     transform="translate(-432.14285,-662.0075)">
    <g
       transform="matrix(1.2343949,0,0,-1.2343949,391.32734,1651.3207)"
       inkscape:label="ink_ext_XXXXXX"
       id="g2826">
      <g
         transform="scale(0.1,0.1)"
         id="g2828">
        <path
           id="path2830"
           style="fill:#ed1c24;fill-opacity:1;fill-rule:evenodd;stroke:none"
           d="M 903.652,6535.18 903.031,7572.61 1801.18,7053.05 903.652,6535.18 z M 410.5,8000.83 l -6.367,-2.12 -6.367,-2.12 -4.243,-2.13 -4.246,-2.12 -4.242,-2.12 -2.597,-1.55 -3.77,-2.7 -2.617,-1.64 -3.594,-2.68 -2.277,-2.04 -2.121,-2.12 -2.121,-2.13 -2.239,-2.04 -2.234,-2.05 -2.086,-2.08 -2.008,-2.12 -2.117,-2.28 -1.934,-2.18 -2.273,-3.04 -2.086,-3.3 -2.16,-3.05 -2.082,-3.32 -2.125,-4.24 -2.117,-4.25 -2.125,-6.36 -2.122,-6.37 -2.121,-6.36 -2.125,-10.61 0,-1720.91 2.125,-10.6 2.121,-6.37 2.122,-6.37 2.125,-4.24 2.117,-4.24 2.125,-4.25 2.121,-4.24 1.777,-3.04 2.465,-3.32 1.629,-2.21 1.894,-2.54 2.844,-3.75 2.121,-2.12 2.121,-2.12 2.125,-2.12 2.122,-2.13 3.691,-2.99 2.504,-1.93 2.101,-1.44 2.977,-2.18 3.234,-2.21 2.77,-1.71 3.941,-2.39 4.242,-2.12 4.247,-2.12 4.546,-2.12 6.063,-2.13 8.488,-2.12 8.488,-2.12 1720.9,0 8.49,2.12 8.49,2.12 5.64,1.98 4.96,2.27 4.25,2.12 4.24,1.97 4.25,2.28 2.8,1.78 3.64,2.23 2.73,1.89 2.61,1.94 3,2.47 2.34,2.27 2.16,2.16 2.12,2.12 2.05,2.16 2.01,2.19 2.12,2.13 2.96,3.63 1.74,2.5 1.81,2.79 1.98,3.81 2.12,4.24 2.12,4.25 2.13,4.24 2.12,4.24 2.12,4.25 2.73,8.41 1.52,8.56 c 0,575.05 0,1150.1 0,1725.15 -0.71,2.83 -1.42,5.66 -2.13,8.49 -0.71,2.82 -1.26,5.12 -1.97,7.95 -0.71,1.41 -1.3,3.98 -2.01,5.39 -0.7,2.12 -1.68,3.63 -2.38,5.75 -0.71,1.42 -1.42,2.83 -2.13,4.25 -0.7,1.41 -1.41,2.82 -2.12,4.24 -0.58,0.89 -1.16,1.77 -1.74,2.65 -0.78,1.21 -1.56,2.42 -2.35,3.62 -0.64,0.99 -1.27,1.99 -1.91,2.98 -0.7,0.95 -1.41,1.89 -2.1,2.84 -0.84,0.92 -1.67,1.84 -2.51,2.77 -0.7,0.7 -1.41,1.41 -2.12,2.12 -0.71,0.71 -1.41,1.41 -2.12,2.12 -0.71,0.71 -1.41,1.41 -2.12,2.12 -0.71,0.71 -1.42,1.42 -2.12,2.12 -0.71,0.71 -1.42,1.42 -2.13,2.12 -0.7,0.71 -1.41,1.42 -2.12,2.13 -0.71,0.71 -1.41,1.41 -2.12,2.12 -0.81,0.76 -1.62,1.52 -2.43,2.27 -0.9,0.66 -1.81,1.32 -2.72,1.97 -1.11,0.71 -2.23,1.42 -3.34,2.12 -0.98,0.69 -1.96,1.37 -2.95,2.05 -1.14,0.73 -2.28,1.46 -3.42,2.2 -1.41,0.71 -2.44,1.42 -3.86,2.12 -1.41,0.71 -2.73,1.41 -4.14,2.12 -1.42,0.71 -3.31,1.42 -4.73,2.13 -2.12,0.7 -4.24,1.41 -6.36,2.12 -2.12,0.7 -4.25,1.41 -6.37,2.12 -2.83,0.71 -5.66,1.41 -8.48,2.12 l -1727.271,0 -10.609,-2.12" />
        <path
           id="path2832"
           style="fill:none;stroke:#ed1c24;stroke-width:2.16000009;stroke-linecap:butt;stroke-linejoin:miter;stroke-miterlimit:22.92560005;stroke-opacity:1;stroke-dasharray:none"
           d="M 903.652,6535.18 903.031,7572.61 1801.18,7053.05 903.652,6535.18 z M 410.5,8000.83 l -6.367,-2.12 -6.367,-2.12 -4.243,-2.13 -4.246,-2.12 -4.242,-2.12 -2.597,-1.55 -3.77,-2.7 -2.617,-1.64 -3.594,-2.68 -2.277,-2.04 -2.121,-2.12 -2.121,-2.13 -2.239,-2.04 -2.234,-2.05 -2.086,-2.08 -2.008,-2.12 -2.117,-2.28 -1.934,-2.18 -2.273,-3.04 -2.086,-3.3 -2.16,-3.05 -2.082,-3.32 -2.125,-4.24 -2.117,-4.25 -2.125,-6.36 -2.122,-6.37 -2.121,-6.36 -2.125,-10.61 0,-1720.91 2.125,-10.6 2.121,-6.37 2.122,-6.37 2.125,-4.24 2.117,-4.24 2.125,-4.25 2.121,-4.24 1.777,-3.04 2.465,-3.32 1.629,-2.21 1.894,-2.54 2.844,-3.75 2.121,-2.12 2.121,-2.12 2.125,-2.12 2.122,-2.13 3.691,-2.99 2.504,-1.93 2.101,-1.44 2.977,-2.18 3.234,-2.21 2.77,-1.71 3.941,-2.39 4.242,-2.12 4.247,-2.12 4.546,-2.12 6.063,-2.13 8.488,-2.12 8.488,-2.12 1720.9,0 8.49,2.12 8.49,2.12 5.64,1.98 4.96,2.27 4.25,2.12 4.24,1.97 4.25,2.28 2.8,1.78 3.64,2.23 2.73,1.89 2.61,1.94 3,2.47 2.34,2.27 2.16,2.16 2.12,2.12 2.05,2.16 2.01,2.19 2.12,2.13 2.96,3.63 1.74,2.5 1.81,2.79 1.98,3.81 2.12,4.24 2.12,4.25 2.13,4.24 2.12,4.24 2.12,4.25 2.73,8.41 1.52,8.56 c 0,575.05 0,1150.1 0,1725.15 -0.71,2.83 -1.42,5.66 -2.13,8.49 -0.71,2.82 -1.26,5.12 -1.97,7.95 -0.71,1.41 -1.3,3.98 -2.01,5.39 -0.7,2.12 -1.68,3.63 -2.38,5.75 -0.71,1.42 -1.42,2.83 -2.13,4.25 -0.7,1.41 -1.41,2.82 -2.12,4.24 -0.58,0.89 -1.16,1.77 -1.74,2.65 -0.78,1.21 -1.56,2.42 -2.35,3.62 -0.64,0.99 -1.27,1.99 -1.91,2.98 -0.7,0.95 -1.41,1.89 -2.1,2.84 -0.84,0.92 -1.67,1.84 -2.51,2.77 -0.7,0.7 -1.41,1.41 -2.12,2.12 -0.71,0.71 -1.41,1.41 -2.12,2.12 -0.71,0.71 -1.41,1.41 -2.12,2.12 -0.71,0.71 -1.42,1.42 -2.12,2.12 -0.71,0.71 -1.42,1.42 -2.13,2.12 -0.7,0.71 -1.41,1.42 -2.12,2.13 -0.71,0.71 -1.41,1.41 -2.12,2.12 -0.81,0.76 -1.62,1.52 -2.43,2.27 -0.9,0.66 -1.81,1.32 -2.72,1.97 -1.11,0.71 -2.23,1.42 -3.34,2.12 -0.98,0.69 -1.96,1.37 -2.95,2.05 -1.14,0.73 -2.28,1.46 -3.42,2.2 -1.41,0.71 -2.44,1.42 -3.86,2.12 -1.41,0.71 -2.73,1.41 -4.14,2.12 -1.42,0.71 -3.31,1.42 -4.73,2.13 -2.12,0.7 -4.24,1.41 -6.36,2.12 -2.12,0.7 -4.25,1.41 -6.37,2.12 -2.83,0.71 -5.66,1.41 -8.48,2.12 l -1727.271,0 -10.609,-2.12 z" />
        <path
           id="path2834"
           style="fill:#231f20;fill-opacity:1;fill-rule:nonzero;stroke:none"
           d="m 2435.75,7557.39 c 0,-15.87 7.51,-23.6 22.54,-23.6 15.64,0 23.15,7.73 23.15,23.6 l 0,424.15 c 0,15.87 -7.51,23.5 -23.15,23.5 -15.03,0 -22.54,-7.63 -22.54,-23.5 l 0,-424.15" />
        <path
           id="path2836"
           style="fill:#231f20;fill-opacity:1;fill-rule:nonzero;stroke:none"
           d="m 2672.48,7558.02 c 0,-15.87 7.51,-24.23 23.16,-24.23 15.02,0 22.54,8.36 22.54,24.23 l 0,358.12 245.37,-363.19 c 8.76,-12.7 19.4,-19.16 31.29,-19.16 15.03,0 22.54,9.63 22.54,28.05 l 0,418.43 c 0,15.87 -7.51,24.13 -23.17,24.13 -15.01,0 -22.53,-8.26 -22.53,-24.13 l 0,-362.56 -244.12,364.47 c -10.01,15.23 -20.65,22.86 -32.54,22.86 -15.03,0 -22.54,-9.53 -22.54,-27.95 l 0,-419.07" />
        <path
           id="path2838"
           style="fill:#231f20;fill-opacity:1;fill-rule:nonzero;stroke:none"
           d="m 3430,7942.81 c 8.76,-5.72 16.27,-11.43 23.79,-11.43 13.14,0 21.91,12.06 21.91,24.76 0,10.8 -5.64,22.23 -17.53,29.21 -35.68,19.69 -72.62,29.21 -106.41,29.21 -78.24,0 -140.84,-48.26 -140.84,-131.44 0,-66.03 68.86,-101.59 130.2,-133.97 48.82,-26.04 93.89,-50.17 93.89,-88.26 0,-60.96 -46.32,-85.09 -100.78,-85.09 -27.54,0 -58.84,8.89 -83.25,24.13 -7.51,5.08 -15.02,7.62 -21.91,7.62 -14.39,0 -21.28,-6.98 -21.28,-21.59 0,-10.79 5.63,-20.32 16.9,-27.94 31.92,-20.95 68.23,-31.85 107.67,-31.85 86.37,0 153.35,47.1 153.35,137.89 0,66.04 -60.09,97.15 -116.43,128.26 -53.2,29.21 -107.03,52.7 -107.03,93.34 0,45.08 38.18,79.37 79.49,79.37 32.55,0 68.23,-9.52 88.26,-22.22" />
        <path
           id="path2840"
           style="fill:#231f20;fill-opacity:1;fill-rule:nonzero;stroke:none"
           d="m 3753.74,7560.56 c 0,-17.77 8.14,-26.77 23.79,-26.77 15.02,0 22.53,9 22.53,26.77 l 0,397.49 92.64,0 c 15.65,0 23.78,7.62 23.78,22.86 0,15.87 -8.13,23.49 -23.78,23.49 l -230.97,0 c -16.9,0 -25.04,-7.62 -25.04,-23.49 0,-15.24 8.14,-22.86 25.04,-22.86 l 92.01,0 0,-397.49" />
        <path
           id="path2842"
           style="fill:#231f20;fill-opacity:1;fill-rule:nonzero;stroke:none"
           d="m 4086.24,7557.39 c 0,-15.87 7.51,-23.6 22.54,-23.6 15.64,0 23.16,7.73 23.16,23.6 l 0,424.15 c 0,15.87 -7.52,23.5 -23.16,23.5 -15.03,0 -22.54,-7.63 -22.54,-23.5 l 0,-424.15" />
        <path
           id="path2844"
           style="fill:#231f20;fill-opacity:1;fill-rule:nonzero;stroke:none"
           d="m 4440.03,7560.56 c 0,-17.77 8.13,-26.77 23.78,-26.77 15.03,0 22.54,9 22.54,26.77 l 0,397.49 92.63,0 c 15.66,0 23.79,7.62 23.79,22.86 0,15.87 -8.13,23.49 -23.79,23.49 l -230.97,0 c -16.9,0 -25.04,-7.62 -25.04,-23.49 0,-15.24 8.14,-22.86 25.04,-22.86 l 92.02,0 0,-397.49" />
        <path
           id="path2846"
           style="fill:#231f20;fill-opacity:1;fill-rule:nonzero;stroke:none"
           d="m 4772.53,7714.86 c 0,-139.69 78.87,-188.06 175.26,-188.06 96.4,0 180.28,47.74 180.28,188.06 l 0,262.23 c 0,18.42 -8.77,27.31 -25.67,27.31 -16.9,0 -25.66,-8.89 -25.66,-27.31 l 0,-257.15 c 0,-111.75 -53.2,-141.6 -123.31,-141.6 -69.48,0 -130.2,31.75 -130.2,141.6 l 0,257.15 c 0,18.42 -8.14,27.31 -25.03,27.31 -16.91,0 -25.67,-8.89 -25.67,-27.31 l 0,-262.23" />
        <path
           id="path2848"
           style="fill:#231f20;fill-opacity:1;fill-rule:nonzero;stroke:none"
           d="m 5433.65,7560.56 c 0,-17.77 8.14,-26.77 23.79,-26.77 15.02,0 22.53,9 22.53,26.77 l 0,397.49 92.64,0 c 15.65,0 23.78,7.62 23.78,22.86 0,15.87 -8.13,23.49 -23.78,23.49 l -230.97,0 c -16.9,0 -25.04,-7.62 -25.04,-23.49 0,-15.24 8.14,-22.86 25.04,-22.86 l 92.01,0 0,-397.49" />
        <path
           id="path2850"
           style="fill:#231f20;fill-opacity:1;fill-rule:nonzero;stroke:none"
           d="m 2449.83,6837.35 c 0,-15.24 7.51,-22.96 23.16,-22.96 15.03,0 22.54,7.72 22.54,22.96 l 0,192.39 258.51,0 0,-192.39 c 0,-15.24 7.51,-22.96 22.53,-22.96 15.66,0 23.79,7.72 23.79,22.96 l 0,424.79 c 0,15.87 -8.13,23.49 -23.79,23.49 -15.02,0 -22.53,-7.62 -22.53,-23.49 l 0,-185.41 -258.51,0 0,185.41 c 0,15.87 -7.51,23.49 -23.16,23.49 -15.03,0 -22.54,-7.62 -22.54,-23.49 l 0,-424.79" />
        <path
           id="path2852"
           style="fill:#231f20;fill-opacity:1;fill-rule:nonzero;stroke:none"
           d="m 2954.23,6843.07 c 0,-19.05 7.51,-28.68 23.16,-28.68 15.02,0 22.53,9.63 22.53,28.68 l 0,177.79 131.45,0 100.78,-194.31 c 5.01,-10.16 13.14,-12.8 21.28,-12.8 13.77,0 20.03,9 20.03,21.06 0,6.98 -1.88,14.6 -5.63,22.23 l -87.63,173.97 c 65.09,17.78 96.39,69.85 96.39,121.91 0,66.04 -49.45,132.08 -142.71,132.08 l -143.97,0 c -23.79,0 -35.68,-8.26 -35.68,-25.41 l 0,-416.52 z m 184.65,395.57 c 59.47,0 90.14,-44.44 90.14,-87.62 0,-42.54 -28.8,-83.81 -90.14,-83.81 l -138.96,0 0,171.43 138.96,0" />
        <path
           id="path2854"
           style="fill:#231f20;fill-opacity:1;fill-rule:nonzero;stroke:none"
           d="m 3438.71,7267.21 c -4.37,12.7 -12.51,19.06 -24.41,19.06 -15.64,0 -23.78,-7.63 -23.78,-22.86 0,-3.82 0.62,-7.62 1.87,-11.43 l 143.35,-403.84 c 8.14,-22.22 18.77,-33.75 31.92,-33.75 14.4,0 26.29,13.43 35.68,39.47 l 139.59,398.12 c 1.25,2.54 1.87,5.07 1.87,7.61 0,13.34 -14.39,26.04 -27.54,26.04 -10.64,0 -17.53,-6.35 -21.91,-18.42 l -127.69,-373.98 -128.95,373.98" />
        <path
           id="path2856"
           style="fill:#231f20;fill-opacity:1;fill-rule:nonzero;stroke:none"
           d="m 3957.63,7219.59 91.39,-260.33 -185.28,0 93.89,260.33 z m 140.84,-389.86 c 3.76,-10.16 11.27,-15.34 22.53,-15.34 13.78,0 21.29,8.99 21.29,21.69 0,3.81 -0.63,8.89 -2.5,13.33 l -146.48,406.38 c -6.88,19.05 -19.4,28.57 -36.3,28.57 -16.9,0 -29.42,-9.52 -36.31,-28.57 l -141.46,-406.38 c -1.25,-3.8 -2.51,-8.25 -2.51,-12.7 0,-11.42 5.64,-22.32 20.04,-22.32 13.14,0 22.53,8.36 28.16,24.23 l 25.67,72.38 215.32,0 32.55,-81.27" />
        <path
           id="path2858"
           style="fill:#231f20;fill-opacity:1;fill-rule:nonzero;stroke:none"
           d="m 4275,6841.16 c 0,-17.78 8.13,-26.77 23.78,-26.77 15.02,0 22.53,8.99 22.53,26.77 l 0,397.48 92.64,0 c 15.65,0 23.79,7.62 23.79,22.86 0,15.88 -8.14,23.5 -23.79,23.5 l -230.97,0 c -16.9,0 -25.04,-7.62 -25.04,-23.5 0,-15.24 8.14,-22.86 25.04,-22.86 l 92.02,0 0,-397.48" />
        <path
           id="path2860"
           style="fill:#231f20;fill-opacity:1;fill-rule:nonzero;stroke:none"
           d="m 4746.34,7223.4 c 8.76,-5.71 16.27,-11.43 23.78,-11.43 13.15,0 21.91,12.07 21.91,24.77 0,10.79 -5.64,22.22 -17.53,29.21 -35.68,19.68 -72.61,29.2 -106.41,29.2 -78.24,0 -140.84,-48.25 -140.84,-131.44 0,-66.03 68.86,-101.58 130.2,-133.97 48.82,-26.03 93.89,-50.16 93.89,-88.26 0,-60.95 -46.32,-85.08 -100.77,-85.08 -27.54,0 -58.84,8.89 -83.25,24.13 -7.52,5.08 -15.03,7.62 -21.91,7.62 -14.4,0 -21.28,-6.99 -21.28,-21.59 0,-10.79 5.63,-20.32 16.9,-27.94 31.92,-20.95 68.23,-31.85 107.66,-31.85 86.38,0 153.36,47.09 153.36,137.89 0,66.04 -60.1,97.15 -116.43,128.26 -53.21,29.21 -107.03,52.7 -107.03,93.34 0,45.08 38.18,79.37 79.49,79.37 32.55,0 68.22,-9.53 88.26,-22.23" />
        <path
           id="path2862"
           style="fill:#231f20;fill-opacity:1;fill-rule:nonzero;stroke:none"
           d="m 4918.48,6834.81 c 0,-13.33 8.14,-20.42 23.79,-20.42 15.02,0 22.53,7.09 22.53,20.42 l 0,135.88 83.88,89.53 142.09,-235.57 c 5.63,-6.35 10.01,-10.9 21.28,-10.9 6.26,0 23.16,8.36 23.16,23.6 0,5.72 -1.88,13.33 -7.51,18.42 l -145.22,239.37 134.57,149.22 c 4.39,3.81 6.26,8.89 6.26,14.6 0,12.7 -12.51,25.4 -25.66,25.4 -5.01,0 -10.64,-1.27 -14.4,-5.72 l -218.45,-244.45 0,231.76 c 0,13.33 -8.14,19.68 -23.78,19.68 -15.03,0 -22.54,-6.35 -22.54,-19.68 l 0,-431.14" />
        <path
           id="path2864"
           style="fill:#231f20;fill-opacity:1;fill-rule:nonzero;stroke:none"
           d="m 5341,6843.07 c 0,-22.86 3.13,-28.68 25.66,-28.68 l 195.29,0 c 18.16,0 26.92,7.72 26.92,22.96 0,15.87 -8.76,23.49 -26.92,23.49 l -175.26,0 0,174.62 140.21,0 c 15.65,0 23.16,7.62 23.16,22.22 0,15.87 -7.51,24.13 -23.16,24.13 l -140.21,0 0,156.2 170.26,0 c 15.65,0 23.16,7.62 23.16,22.86 0,15.87 -7.51,23.49 -23.16,23.49 l -190.29,0 c -16.9,0 -25.66,-9.52 -25.66,-28.57 l 0,-412.72" />
        <path
           id="path2866"
           style="fill:#231f20;fill-opacity:1;fill-rule:nonzero;stroke:none"
           d="m 2777.52,6317.32 c 3.12,-0.63 2.5,-3.81 2.5,-9.52 0,-93.34 -50.08,-170.81 -137.71,-170.81 -103.9,0 -155.24,105.41 -155.24,201.29 0,113.02 52.59,196.2 159,196.2 33.8,0 70.73,-12.07 106.41,-45.09 5,-4.44 15.02,-10.16 21.91,-10.16 15.65,0 24.41,14.61 24.41,26.67 0,6.99 -3.76,13.97 -10.64,20.96 -38.18,40 -95.15,58.41 -139.59,58.41 -142.09,0 -212.82,-113.65 -212.82,-247.63 0,-120.01 66.35,-249.64 204.05,-249.64 114.56,0 187.16,98.52 187.16,219.16 0,29.21 -3.75,56.51 -40.05,56.51 l -135.84,0 c -19.4,0 -29.42,-7.62 -29.42,-23.49 0,-15.24 9.39,-22.86 27.55,-22.86 l 128.32,0" />
        <path
           id="path2868"
           style="fill:#231f20;fill-opacity:1;fill-rule:nonzero;stroke:none"
           d="m 3076.14,6131.28 c 0,-24.13 10.02,-36.3 30.67,-36.3 l 215.95,0 c 15.65,0 23.16,7.73 23.16,23.6 0,15.24 -7.51,22.86 -23.16,22.86 l -200.92,0 0,401.29 c 0,15.88 -7.52,23.5 -23.16,23.5 -15.03,0 -22.54,-7.62 -22.54,-23.5 l 0,-411.45" />
        <path
           id="path2870"
           style="fill:#231f20;fill-opacity:1;fill-rule:nonzero;stroke:none"
           d="m 3769.73,6500.19 91.4,-260.33 -185.29,0 93.89,260.33 z m 140.84,-389.87 c 3.76,-10.15 11.27,-15.34 22.54,-15.34 13.77,0 21.28,9 21.28,21.7 0,3.8 -0.62,8.89 -2.5,13.33 l -146.48,406.37 c -6.88,19.05 -19.4,28.57 -36.3,28.57 -16.9,0 -29.42,-9.52 -36.31,-28.57 l -141.46,-406.37 c -1.25,-3.81 -2.5,-8.26 -2.5,-12.7 0,-11.43 5.63,-22.33 20.03,-22.33 13.15,0 22.53,8.36 28.17,24.23 l 25.66,72.39 215.32,0 32.55,-81.28" />
        <path
           id="path2872"
           style="fill:#231f20;fill-opacity:1;fill-rule:nonzero;stroke:none"
           d="m 4211.07,6146.52 c -4.38,-6.98 -6.88,-15.24 -6.88,-24.77 0,-17.77 7.51,-26.77 21.91,-26.77 l 277.29,0 c 16.27,0 24.41,8.36 24.41,24.23 0,14.61 -8.14,22.23 -24.41,22.23 l -239.74,0 243.49,372.72 c 6.89,10.79 12.52,22.22 12.52,31.11 0,11.43 -8.76,20.32 -31.29,20.32 l -251.63,0 c -15.65,0 -23.79,-7.62 -23.79,-23.49 0,-15.24 8.14,-22.86 23.79,-22.86 l 217.83,0 -243.5,-372.72" />
        <path
           id="path2874"
           style="fill:#231f20;fill-opacity:1;fill-rule:nonzero;stroke:none"
           d="m 4770.72,6126.2 c 0,-13.33 3.13,-22.22 8.76,-26.03 4.38,-3.18 13.77,-5.19 27.54,-5.19 l 147.1,0 c 70.73,0 132.7,54.08 132.7,132.18 0,62.86 -50.7,116.83 -107.03,125.72 40.68,12.7 70.73,54.6 70.73,100.32 0,81.28 -80.75,111.75 -133.33,111.75 l -120.81,0 c -16.9,0 -25.66,-10.15 -25.66,-30.47 l 0,-408.28 z m 46.32,198.74 96.39,0 c 61.34,0 121.44,-34.28 121.44,-98.42 0,-55.24 -45.7,-85.08 -99.53,-85.08 l -118.3,0 0,183.5 z m 0,43.18 0,150.48 96.39,0 c 44.45,0 88.26,-27.94 88.26,-74.92 0,-53.97 -55.71,-75.56 -103.28,-75.56 l -81.37,0" />
        <path
           id="path2876"
           style="fill:#231f20;fill-opacity:1;fill-rule:nonzero;stroke:none"
           d="m 5341,6123.66 c 0,-22.86 3.13,-28.68 25.66,-28.68 l 195.3,0 c 18.15,0 26.91,7.73 26.91,22.97 0,15.87 -8.76,23.49 -26.91,23.49 l -175.26,0 0,174.61 140.21,0 c 15.64,0 23.16,7.62 23.16,22.23 0,15.87 -7.52,24.12 -23.16,24.12 l -140.21,0 0,156.2 170.25,0 c 15.65,0 23.16,7.62 23.16,22.86 0,15.88 -7.51,23.49 -23.16,23.49 l -190.29,0 c -16.89,0 -25.66,-9.52 -25.66,-28.57 l 0,-412.72" />
        <path
           id="path2878"
           style="fill:#918f90;fill-opacity:1;fill-rule:nonzero;stroke:none"
           d="m 545.008,5595.02 c -18.524,-18.79 -42.524,-29.47 -69.043,-29.47 -73.25,0 -111.141,67.48 -111.141,134.1 0,65.33 36.625,130.67 110.723,130.67 26.098,0 51.781,-9.39 69.883,-27.75 2.945,-3 8.84,-5.13 13.05,-5.13 8.418,0 15.157,6.83 15.157,17.08 0,5.55 -2.528,10.68 -8.004,15.38 -25.254,23.91 -55.567,35.01 -88.824,35.01 -96.829,0 -146.157,-84.55 -146.157,-168.25 0,-82.42 47.645,-164.06 143.629,-164.06 34.52,0 63.989,12.46 90.09,35.52 4.629,4.27 6.317,9.82 6.317,15.8 0,8.12 -4.211,15.8 -15.153,15.8 -3.793,0 -7.16,-1.28 -10.527,-4.7" />
        <path
           id="path2880"
           style="fill:#918f90;fill-opacity:1;fill-rule:nonzero;stroke:none"
           d="m 629.207,5556.59 c 0,-12.81 5.051,-19.29 15.574,-19.29 10.106,0 15.16,6.48 15.16,19.29 l 0,119.57 88.407,0 67.773,-130.68 c 3.371,-6.83 8.844,-8.61 14.317,-8.61 9.261,0 13.472,6.05 13.472,14.17 0,4.69 -1.262,9.82 -3.789,14.94 l -58.941,117.01 c 43.785,11.96 64.836,46.98 64.836,81.99 0,44.42 -33.262,88.83 -95.985,88.83 l -96.828,0 c -16,0 -23.996,-5.55 -23.996,-17.08 l 0,-280.14 z m 124.188,266.05 c 39.996,0 60.625,-29.9 60.625,-58.93 0,-28.62 -19.368,-56.37 -60.625,-56.37 l -93.454,0 0,115.3 93.454,0" />
        <path
           id="path2882"
           style="fill:#918f90;fill-opacity:1;fill-rule:nonzero;stroke:none"
           d="m 1021.98,5864.06 c -89.246,0 -133.867,-82.42 -133.867,-164.84 0,-82.84 45.043,-166.19 133.867,-166.19 90.52,0 135.98,82.49 135.98,164.91 0,82.85 -45.46,166.12 -135.98,166.12 z m 0,-32.03 c 69.05,0 103.15,-67.47 103.15,-135.37 0,-67.05 -33.26,-132.81 -102.3,-132.81 -67.779,0 -102.303,67.9 -102.303,136.22 0,66.62 33.262,131.96 101.453,131.96" />
        <path
           id="path2884"
           style="fill:#918f90;fill-opacity:1;fill-rule:nonzero;stroke:none"
           d="m 1301.52,5809.82 61.46,-175.08 -124.6,0 63.14,175.08 z m 94.72,-262.2 c 2.53,-6.83 7.58,-10.32 15.16,-10.32 9.26,0 14.31,6.05 14.31,14.59 0,2.56 -0.42,5.98 -1.68,8.97 l -98.51,273.3 c -4.63,12.82 -13.06,19.22 -24.42,19.22 -11.37,0 -19.79,-6.4 -24.42,-19.22 l -95.14,-273.3 c -0.84,-2.56 -1.68,-5.56 -1.68,-8.54 0,-7.69 3.78,-15.02 13.47,-15.02 8.84,0 15.15,5.62 18.94,16.3 l 17.27,48.68 144.81,0 21.89,-54.66" />
        <path
           id="path2886"
           style="fill:#918f90;fill-opacity:1;fill-rule:nonzero;stroke:none"
           d="m 1480.44,5555.3 c 0,-11.95 5.47,-18 16,-18 10.1,0 15.15,6.05 15.15,18 l 0,267.34 62.31,0 c 10.52,0 15.99,5.12 15.99,15.37 0,10.67 -5.47,15.8 -15.99,15.8 l -155.35,0 c -11.36,0 -16.84,-5.13 -16.84,-15.8 0,-10.25 5.48,-15.37 16.84,-15.37 l 61.89,0 0,-267.34" />
        <path
           id="path2888"
           style="fill:#918f90;fill-opacity:1;fill-rule:nonzero;stroke:none"
           d="m 1625.26,5553.17 c 0,-10.67 5.05,-15.87 15.15,-15.87 10.53,0 15.59,5.2 15.59,15.87 l 0,285.27 c 0,10.67 -5.06,15.8 -15.59,15.8 -10.1,0 -15.15,-5.13 -15.15,-15.8 l 0,-285.27" />
        <path
           id="path2890"
           style="fill:#918f90;fill-opacity:1;fill-rule:nonzero;stroke:none"
           d="m 1827.33,5809.82 61.47,-175.08 -124.61,0 63.14,175.08 z m 94.72,-262.2 c 2.53,-6.83 7.58,-10.32 15.16,-10.32 9.26,0 14.32,6.05 14.32,14.59 0,2.56 -0.42,5.98 -1.69,8.97 l -98.51,273.3 c -4.63,12.82 -13.05,19.22 -24.42,19.22 -11.36,0 -19.78,-6.4 -24.41,-19.22 l -95.15,-273.3 c -0.84,-2.56 -1.68,-5.56 -1.68,-8.54 0,-7.69 3.79,-15.02 13.47,-15.02 8.84,0 15.16,5.62 18.94,16.3 l 17.27,48.68 144.81,0 21.89,-54.66" />
        <path
           id="path2892"
           style="fill:#918f90;fill-opacity:1;fill-rule:nonzero;stroke:none"
           d="m 1991.1,5553.6 c 0,-10.68 5.05,-16.3 15.58,-16.3 10.1,0 15.15,5.62 15.15,16.3 l 0,240.85 165.03,-244.27 c 5.89,-8.54 13.05,-12.88 21.05,-12.88 10.1,0 15.15,6.48 15.15,18.86 l 0,281.42 c 0,10.68 -5.05,16.23 -15.58,16.23 -10.1,0 -15.15,-5.55 -15.15,-16.23 l 0,-243.84 -164.19,245.12 c -6.73,10.25 -13.89,15.38 -21.89,15.38 -10.1,0 -15.15,-6.41 -15.15,-18.79 l 0,-281.85" />
        <path
           id="path2894"
           style="fill:#918f90;fill-opacity:1;fill-rule:nonzero;stroke:none"
           d="m 2502.18,5826.48 c -5.48,19.22 -16,28.61 -29.48,28.61 -14.73,0 -23.57,-10.67 -26.94,-32.03 l -41.67,-265.62 c -0.43,-1.71 -0.43,-3.41 -0.43,-5.12 0,-9.82 5.89,-14.52 14.74,-14.52 10.52,0 15.15,5.98 16.84,17.5 l 38.73,259.22 79.14,-258.79 c 3.79,-12.38 9.68,-18.43 17.27,-18.43 7.15,0 13.46,6.05 17.25,18.43 l 82.1,258.37 35.78,-259.22 c 1.69,-11.53 6.74,-17.08 16.84,-17.08 8.84,0 15.58,5.98 15.58,15.37 0,1.28 -0.43,2.13 -0.43,3.42 l -39.15,266.47 c -2.94,20.93 -11.78,31.18 -26.1,31.18 -13.89,0 -24.84,-9.4 -30.31,-27.76 l -70.73,-232.74 -69.03,232.74" />
        <path
           id="path2896"
           style="fill:#918f90;fill-opacity:1;fill-rule:nonzero;stroke:none"
           d="m 2785.92,5659.08 c 0,-93.95 53.04,-126.48 117.88,-126.48 64.83,0 121.24,32.1 121.24,126.48 l 0,176.37 c 0,12.38 -5.89,18.36 -17.26,18.36 -11.37,0 -17.26,-5.98 -17.26,-18.36 l 0,-172.95 c 0,-75.17 -35.79,-95.23 -82.93,-95.23 -46.73,0 -87.57,21.34 -87.57,95.23 l 0,172.95 c 0,12.38 -5.47,18.36 -16.84,18.36 -11.37,0 -17.26,-5.98 -17.26,-18.36 l 0,-176.37" />
        <path
           id="path2898"
           style="fill:#918f90;fill-opacity:1;fill-rule:nonzero;stroke:none"
           d="m 3222.48,5812.39 c 5.9,-3.85 10.95,-7.69 16,-7.69 8.84,0 14.73,8.12 14.73,16.66 0,7.26 -3.78,14.94 -11.78,19.64 -24,13.24 -48.84,19.64 -71.57,19.64 -52.62,0 -94.72,-32.45 -94.72,-88.39 0,-44.42 46.31,-68.33 87.56,-90.11 32.84,-17.51 63.15,-33.74 63.15,-59.36 0,-41 -31.15,-57.23 -67.78,-57.23 -18.52,0 -39.57,5.99 -55.99,16.23 -5.05,3.42 -10.1,5.13 -14.73,5.13 -9.69,0 -14.31,-4.7 -14.31,-14.52 0,-7.26 3.78,-13.67 11.36,-18.79 21.47,-14.1 45.89,-21.42 72.41,-21.42 58.1,0 103.14,31.67 103.14,92.73 0,44.42 -40.41,65.34 -78.3,86.27 -35.79,19.64 -71.99,35.45 -71.99,62.77 0,30.32 25.68,53.39 53.47,53.39 21.88,0 45.89,-6.41 59.35,-14.95" />
        <path
           id="path2900"
           style="fill:#918f90;fill-opacity:1;fill-rule:nonzero;stroke:none"
           d="m 3303.73,5553.17 c 0,-10.67 5.06,-15.87 15.16,-15.87 10.53,0 15.58,5.2 15.58,15.87 l 0,285.27 c 0,10.67 -5.05,15.8 -15.58,15.8 -10.1,0 -15.16,-5.13 -15.16,-15.8 l 0,-285.27" />
        <path
           id="path2902"
           style="fill:#918f90;fill-opacity:1;fill-rule:nonzero;stroke:none"
           d="m 3598,5595.02 c -18.52,-18.79 -42.52,-29.47 -69.04,-29.47 -73.25,0 -111.14,67.48 -111.14,134.1 0,65.33 36.63,130.67 110.72,130.67 26.1,0 51.78,-9.39 69.89,-27.75 2.94,-3 8.84,-5.13 13.05,-5.13 8.41,0 15.15,6.83 15.15,17.08 0,5.55 -2.52,10.68 -8,15.38 -25.26,23.91 -55.57,35.01 -88.83,35.01 -96.82,0 -146.15,-84.55 -146.15,-168.25 0,-82.42 47.64,-164.06 143.63,-164.06 34.52,0 63.99,12.46 90.09,35.52 4.63,4.27 6.31,9.82 6.31,15.8 0,8.12 -4.21,15.8 -15.15,15.8 -3.79,0 -7.16,-1.28 -10.53,-4.7" />
        <path
           id="path2904"
           style="fill:#918f90;fill-opacity:1;fill-rule:nonzero;stroke:none"
           d="m 3813.55,5553.17 c 0,-10.67 5.05,-15.87 15.15,-15.87 10.53,0 15.58,5.2 15.58,15.87 l 0,285.27 c 0,10.67 -5.05,15.8 -15.58,15.8 -10.1,0 -15.15,-5.13 -15.15,-15.8 l 0,-285.27" />
        <path
           id="path2906"
           style="fill:#918f90;fill-opacity:1;fill-rule:nonzero;stroke:none"
           d="m 3893.96,5553.6 c 0,-10.68 5.05,-16.3 15.58,-16.3 10.1,0 15.15,5.62 15.15,16.3 l 0,240.85 165.02,-244.27 c 5.9,-8.54 13.06,-12.88 21.06,-12.88 10.1,0 15.15,6.48 15.15,18.86 l 0,281.42 c 0,10.68 -5.05,16.23 -15.58,16.23 -10.1,0 -15.15,-5.55 -15.15,-16.23 l 0,-243.84 -164.19,245.12 c -6.73,10.25 -13.89,15.38 -21.89,15.38 -10.1,0 -15.15,-6.41 -15.15,-18.79 l 0,-281.85" />
        <path
           id="path2908"
           style="fill:#918f90;fill-opacity:1;fill-rule:nonzero;stroke:none"
           d="m 4324.63,5812.39 c 5.89,-3.85 10.94,-7.69 16,-7.69 8.83,0 14.73,8.12 14.73,16.66 0,7.26 -3.79,14.94 -11.79,19.64 -23.99,13.24 -48.83,19.64 -71.57,19.64 -52.62,0 -94.72,-32.45 -94.72,-88.39 0,-44.42 46.31,-68.33 87.57,-90.11 32.84,-17.51 63.15,-33.74 63.15,-59.36 0,-41 -31.16,-57.23 -67.78,-57.23 -18.53,0 -39.58,5.99 -55.99,16.23 -5.06,3.42 -10.11,5.13 -14.74,5.13 -9.68,0 -14.31,-4.7 -14.31,-14.52 0,-7.26 3.79,-13.67 11.37,-18.79 21.47,-14.1 45.88,-21.42 72.41,-21.42 58.09,0 103.13,31.67 103.13,92.73 0,44.42 -40.41,65.34 -78.3,86.27 -35.78,19.64 -71.99,35.45 -71.99,62.77 0,30.32 25.68,53.39 53.47,53.39 21.89,0 45.89,-6.41 59.36,-14.95" />
        <path
           id="path2910"
           style="fill:#918f90;fill-opacity:1;fill-rule:nonzero;stroke:none"
           d="m 4463.55,5555.3 c 0,-11.95 5.48,-18 16,-18 10.1,0 15.16,6.05 15.16,18 l 0,267.34 62.3,0 c 10.53,0 16,5.12 16,15.37 0,10.67 -5.47,15.8 -16,15.8 l -155.34,0 c -11.37,0 -16.84,-5.13 -16.84,-15.8 0,-10.25 5.47,-15.37 16.84,-15.37 l 61.88,0 0,-267.34" />
        <path
           id="path2912"
           style="fill:#918f90;fill-opacity:1;fill-rule:nonzero;stroke:none"
           d="m 4608.37,5553.17 c 0,-10.67 5.05,-15.87 15.16,-15.87 10.52,0 15.58,5.2 15.58,15.87 l 0,285.27 c 0,10.67 -5.06,15.8 -15.58,15.8 -10.11,0 -15.16,-5.13 -15.16,-15.8 l 0,-285.27" />
        <path
           id="path2914"
           style="fill:#918f90;fill-opacity:1;fill-rule:nonzero;stroke:none"
           d="m 4767.5,5555.3 c 0,-11.95 5.48,-18 16,-18 10.11,0 15.16,6.05 15.16,18 l 0,267.34 62.3,0 c 10.52,0 16,5.12 16,15.37 0,10.67 -5.48,15.8 -16,15.8 l -155.34,0 c -11.37,0 -16.84,-5.13 -16.84,-15.8 0,-10.25 5.47,-15.37 16.84,-15.37 l 61.88,0 0,-267.34" />
        <path
           id="path2916"
           style="fill:#918f90;fill-opacity:1;fill-rule:nonzero;stroke:none"
           d="m 4912.32,5659.08 c 0,-93.95 53.05,-126.48 117.88,-126.48 64.83,0 121.24,32.1 121.24,126.48 l 0,176.37 c 0,12.38 -5.89,18.36 -17.26,18.36 -11.36,0 -17.26,-5.98 -17.26,-18.36 l 0,-172.95 c 0,-75.17 -35.78,-95.23 -82.94,-95.23 -46.72,0 -87.56,21.34 -87.56,95.23 l 0,172.95 c 0,12.38 -5.47,18.36 -16.84,18.36 -11.37,0 -17.26,-5.98 -17.26,-18.36 l 0,-176.37" />
        <path
           id="path2918"
           style="fill:#918f90;fill-opacity:1;fill-rule:nonzero;stroke:none"
           d="m 5278.16,5555.3 c 0,-11.95 5.48,-18 16,-18 10.1,0 15.15,6.05 15.15,18 l 0,267.34 62.31,0 c 10.52,0 16,5.12 16,15.37 0,10.67 -5.48,15.8 -16,15.8 l -155.34,0 c -11.37,0 -16.84,-5.13 -16.84,-15.8 0,-10.25 5.47,-15.37 16.84,-15.37 l 61.88,0 0,-267.34" />
        <path
           id="path2920"
           style="fill:#918f90;fill-opacity:1;fill-rule:nonzero;stroke:none"
           d="m 5422.98,5556.59 c 0,-15.38 2.1,-19.29 17.26,-19.29 l 131.35,0 c 12.21,0 18.1,5.2 18.1,15.45 0,10.67 -5.89,15.8 -18.1,15.8 l -117.88,0 0,117.43 94.31,0 c 10.52,0 15.57,5.13 15.57,14.95 0,10.68 -5.05,16.23 -15.57,16.23 l -94.31,0 0,105.05 114.51,0 c 10.53,0 15.58,5.13 15.58,15.37 0,10.68 -5.05,15.8 -15.58,15.8 l -127.98,0 c -11.36,0 -17.26,-6.4 -17.26,-19.22 l 0,-277.57" />
        <path
           id="path2922"
           style="fill:#231f20;fill-opacity:1;fill-rule:nonzero;stroke:none"
           d="m 2437.12,6705.86 3127.52,0 22.88,-31.29 -3150.4,0 0,31.29" />
        <path
           id="path2924"
           style="fill:#231f20;fill-opacity:1;fill-rule:nonzero;stroke:none"
           d="m 2437.12,7422.23 c 1050.13,0 2076.82,0 3126.96,0 l 23.44,-31.29 -3150.4,0 0,31.29" />
        <path
           id="path2926"
           style="fill:#ffffff;fill-opacity:1;fill-rule:evenodd;stroke:none"
           d="m 1801.18,7053.05 -898.149,519.56 0.621,-1037.43 897.528,517.87" />
      </g>
    </g>
  </g>
</svg>
