<?xml version="1.0" encoding="UTF-8" standalone="no"?>
<!-- Created with Inkscape (http://www.inkscape.org/) -->

<svg
   xmlns:dc="http://purl.org/dc/elements/1.1/"
   xmlns:cc="http://creativecommons.org/ns#"
   xmlns:rdf="http://www.w3.org/1999/02/22-rdf-syntax-ns#"
   xmlns:svg="http://www.w3.org/2000/svg"
   xmlns="http://www.w3.org/2000/svg"
   xmlns:sodipodi="http://sodipodi.sourceforge.net/DTD/sodipodi-0.dtd"
   xmlns:inkscape="http://www.inkscape.org/namespaces/inkscape"
   width="251.9986"
   height="69.002861"
   viewBox="0 0 66.674628 18.257006"
   version="1.1"
   id="svg11469"
   inkscape:version="0.92.0 r15299"
   sodipodi:docname="st regis.svg">
  <defs
     id="defs11463">
    <polygon
       points="0.013824885,0.2180315 49.77235,0.2180315 49.77235,29.985827 0.013824885,29.985827 "
       id="path-1" />
  </defs>
  <sodipodi:namedview
     id="base"
     pagecolor="#ffffff"
     bordercolor="#666666"
     borderopacity="1.0"
     inkscape:pageopacity="0.0"
     inkscape:pageshadow="2"
     inkscape:zoom="3.5880203"
     inkscape:cx="124.99929"
     inkscape:cy="33.501431"
     inkscape:document-units="mm"
     inkscape:current-layer="layer1"
     showgrid="false"
     fit-margin-top="0"
     fit-margin-left="0"
     fit-margin-right="0"
     fit-margin-bottom="0"
     units="px"
     inkscape:window-width="1280"
     inkscape:window-height="744"
     inkscape:window-x="-4"
     inkscape:window-y="-4"
     inkscape:window-maximized="1" />
  <metadata
     id="metadata11466">
    <rdf:RDF>
      <cc:Work
         rdf:about="">
        <dc:format>image/svg+xml</dc:format>
        <dc:type
           rdf:resource="http://purl.org/dc/dcmitype/StillImage" />
        <dc:title></dc:title>
      </cc:Work>
    </rdf:RDF>
  </metadata>
  <g
     inkscape:label="Layer 1"
     inkscape:groupmode="layer"
     id="layer1"
     transform="translate(-276.11161,-335.23154)">
    <g
       id="g11571"
       transform="translate(0.26458399,-0.26457599)">
      <path
         id="Fill-1"
         d="m 315.42765,344.20643 h -0.98888 v -1.77858 h 0.98888 c 1.01164,0 1.37742,0.0625 1.37742,0.88754 0,0.83371 -0.36578,0.89104 -1.37742,0.89104 z m 1.9823,0.85972 -0.89133,-0.50717 c 1.03176,-0.0365 1.74971,-0.23011 1.74971,-1.20968 0,-0.93793 -0.97422,-1.28704 -2.31532,-1.28704 h -3.34789 l 0.61586,0.52629 v 3.54232 l -0.61586,0.58097 h 2.45024 l -0.61659,-0.57832 v -1.56494 h 1.28263 l 1.33092,2.14326 h 1.66941 l -0.68507,-0.58097 z m 4.40886,1.29054 v -1.78811 h 1.38847 l 0.59929,0.52454 v -1.40864 l -0.59929,0.52195 h -1.38847 v -1.78112 h 2.09813 l 1.11478,0.90221 v -1.26526 h -5.16969 l 0.6915,0.5931 v 3.47816 l -0.6915,0.57832 h 5.16969 v -1.26182 l -1.11478,0.90667 z m 14.21091,-4.29443 h -2.51043 l 0.61568,0.5211 v 3.61009 l -0.61568,0.51839 h 2.51043 l -0.62218,-0.51839 v -3.61009 z m 2.45576,0.77294 c 0,-0.51586 0.69696,-0.66697 1.31908,-0.66697 0.81292,0 1.47614,0.51326 1.63443,1.2384 h 0.56199 l 0.007,-1.43471 -0.6166,0.30832 c -0.31719,-0.22492 -0.97979,-0.43336 -1.59516,-0.43336 -1.03931,0 -2.29704,0.29528 -2.29704,1.46416 0,1.49899 3.83147,1.33828 3.83147,2.53498 0,0.58538 -0.75218,0.76075 -1.50007,0.76075 -0.96324,0 -1.54425,-0.69816 -1.6921,-1.45638 h -0.62519 v 1.65789 l 0.635,-0.34043 c 0.56015,0.29009 1.03379,0.45503 1.65345,0.45503 1.37246,0 2.45533,-0.43336 2.45533,-1.50931 0,-1.81334 -3.77195,-1.63091 -3.77195,-2.57837 z m -8.57967,1.57961 0.60862,0.47421 v 0.81802 c 0,0.43167 -0.64967,0.77994 -1.1222,0.77994 -1.50977,0 -1.68769,-1.2836 -1.68769,-2.10337 0,-1.14372 0.46248,-2.13379 1.68947,-2.13379 1.06189,0 1.50252,0.54193 1.86751,1.34607 h 0.52444 v -1.53363 l -0.62764,0.29697 c -0.22436,-0.12154 -0.73979,-0.4307 -1.75609,-0.4307 -1.85371,0 -3.14727,0.77722 -3.14727,2.43335 0,1.77164 1.28086,2.47506 3.11536,2.47506 0.51543,0 1.14668,-0.17284 1.72321,-0.50716 l 0.69243,0.38737 v -1.82813 l 0.60304,-0.47421 z m -22.8753,2.29703 0.81464,0.69129 0.8128,-0.69129 -0.8128,-0.6791 z m -1.78346,-3.38432 1.12201,-0.90221 h 0.84661 v 2.52105 l -0.62212,0.52014 h 2.50233 l -0.625,-0.52014 v -2.52105 h 0.84936 l 1.12024,0.90221 v -1.26526 h -5.19343 z m -4.8614,-0.49232 c 0,-0.51586 0.69697,-0.66697 1.31639,-0.66697 0.81562,0 1.48424,0.51326 1.63394,1.2384 h 0.56916 l 0.006,-1.43471 -0.62125,0.30832 c -0.31297,-0.22492 -0.98073,-0.43336 -1.59739,-0.43336 -1.03814,0 -2.2971,0.29528 -2.2971,1.46416 0,1.49899 3.83699,1.33828 3.83699,2.53498 0,0.58538 -0.74985,0.76075 -1.49976,0.76075 -0.96514,0 -1.55627,-0.69816 -1.69585,-1.45638 h -0.63125 v 1.65789 l 0.63947,-0.34043 c 0.56285,0.29009 1.03907,0.45503 1.65296,0.45503 1.37933,0 2.46122,-0.43336 2.46122,-1.50931 0,-1.81334 -3.77306,-1.63091 -3.77306,-2.57837 z"
         inkscape:connector-curvature="0"
         style="fill:#0a0b09;fill-rule:evenodd;stroke:none;stroke-width:0.26458332" />
      <polyline
         transform="matrix(0.26458333,0,0,0.26458333,276.1116,335.76146)"
         points="44 19.0403002 44 21.3501997 41.0402188 21.3501997 41.0540698 25 36.6659776 25 36.6659776 21.3501997 33 21.3501997 41.0402188 13 41.0402188 19.0403002 44 19.0403002"
         id="Fill-2"
         style="fill:#0a0b09;fill-rule:evenodd;stroke:none;stroke-width:1" />
      <path
         id="Fill-3"
         d="m 280.46879,335.76146 c 0.13427,0.56236 0.67302,1.21935 2.79034,1.21935 2.32096,0 4.1544,0.0105 4.5739,0.009 3.82409,-0.005 4.20635,3.27177 4.20635,3.98502 0,0.89926 -0.14206,2.80001 -2.04579,3.7056 -0.32841,0.15794 -0.56316,0.26237 -1.00652,0.37446 0.73025,0.42062 1.36946,1.84888 1.99586,3.35282 0.40337,0.96764 0.75068,1.92218 1.15687,2.55713 0.23303,0.35851 0.57481,0.76408 0.90328,0.92124 0.1509,0.0731 0.36626,0.0923 0.53826,0.0997 0.39281,0.007 0.64136,-0.18985 0.75343,-0.38579 -0.37172,0.1904 -0.79674,-0.0403 -0.92439,-0.35851 -0.12537,-0.30005 -0.0854,-0.56985 0.0705,-0.81432 0.18592,-0.29512 0.4733,-0.4144 0.84281,-0.39273 1.08638,0.0566 1.10251,1.27269 1.10251,1.27269 -0.0178,0.68554 -0.23303,1.16199 -0.7119,1.51472 -0.31014,0.22839 -0.66854,0.37836 -1.19293,0.39949 -1.14852,0.0483 -2.5329,-0.67063 -3.7419,-4.29549 -0.44495,-1.33607 -1.14514,-2.70606 -1.88097,-3.26812 -0.34173,-0.26158 -0.96426,-0.64603 -1.85675,-0.64603 l -2.65447,-0.005 c 0,0 -0.0388,0.73139 -0.0344,0.91381 0.0128,0.41434 -0.13212,2.45715 -0.25854,2.70849 -0.30688,0.0602 -1.1192,-0.11069 -1.26176,-0.27363 0.182,-0.70643 0.22972,-1.56909 0.25634,-3.07693 0.003,-0.20282 0.003,-0.28825 0.003,-0.28825 0,0 -0.009,-4.55676 -0.009,-4.56175 0.23579,-0.11295 1.03308,-0.0153 1.28942,0.20477 0.002,0.006 0.006,3.07912 0.006,3.07912 0,0 3.19395,-0.004 4.54005,-0.004 1.9098,0 2.83867,-1.14793 2.83867,-2.73376 0,-1.58779 -1.05093,-2.69011 -2.92854,-2.69011 h -4.56783 l -0.7446,-0.002 c -1.22072,0 -2.59503,-1.10817 -2.04739,-2.52175"
         inkscape:connector-curvature="0"
         style="fill:#0a0b09;fill-rule:evenodd;stroke:none;stroke-width:0.26458332" />
      <polyline
         transform="matrix(0.26458333,0,0,0.26458333,276.1116,335.76146)"
         points="66 40.5043707 61.5001284 45 57 40.5043707 61.5001284 36 66 40.5043707"
         id="Fill-4"
         style="fill:#0a0b09;fill-rule:evenodd;stroke:none;stroke-width:1" />
      <path
         transform="matrix(0.26458333,0,0,0.26458333,276.1116,345.55104)"
         style="fill:#0a0b09;fill-rule:evenodd;stroke:none;stroke-width:1"
         inkscape:connector-curvature="0"
         d="M 39.460599,27.205512 V 0.2180315 c 1.443088,0.0344882 4.440783,2.2275591 4.840784,3.0975591 V 18.030945 l 3.2947,-3.262205 2.176267,2.132126 -10.311751,10.304646"
         id="Fill-5"
         mask="none" />
      <path
         transform="matrix(0.26458333,0,0,0.26458333,276.1116,345.55104)"
         style="fill:#0a0b09;fill-rule:evenodd;stroke:none;stroke-width:1"
         inkscape:connector-curvature="0"
         d="m 17.396313,28.776142 c -2.818202,-4.940079 -8.2986172,-9.197953 -12.2753453,-7.71189 -1.360599,0.506457 -2.047235,1.788661 -2.0262672,3.052677 0.017051,1.705748 1.1582949,3.354095 3.5640553,3.152599 0.501152,-0.04347 1.2762672,-0.308977 1.722811,-0.682678 0.833871,-0.711023 1.2237327,-1.766693 1.4071429,-2.475354 0.8043783,0.413622 1.8933183,1.20189 2.7380183,2.11063 C 10.967972,29.880945 5.9214286,31.012441 2.7449309,29.04189 0.96105991,27.945591 -0.30898617,25.841339 0.06589862,22.735276 0.33963134,20.415354 1.7299539,18.896693 3.3347926,17.884252 5.281106,16.651181 7.6274193,16.469055 10.491936,17.215984 c 3.182488,0.830551 5.954608,2.933858 6.925575,4.396772 0.564517,-0.705354 1.23848,-1.852441 1.725116,-2.764961 1.029954,0.555118 2.769585,1.302047 4.640092,1.526221 -0.914286,2.259212 -4.381106,7.099134 -6.386406,8.402126"
         id="Fill-7"
         mask="none" />
      <path
         id="Fill-9"
         d="m 285.38663,349.13222 c -0.63849,0.95837 -1.51983,1.35833 -2.3342,1.43238 -1.40758,0.12475 -2.58106,-0.63781 -3.28087,-1.28166 0.005,0.18777 -0.0238,0.46174 -0.0814,0.8746 -0.36738,-0.21879 -0.68766,-0.34809 -0.93276,-0.42563 0.0902,-1.04948 0.0802,-1.92657 0.0697,-2.29409 v -0.54333 h 0.4575 c 0.23629,0.87466 1.09667,1.69078 2.06704,2.12263 0.91009,0.40545 1.91705,0.34473 2.68832,-0.32472 0.5322,-0.46661 0.78447,-1.77736 0.21684,-2.64853 -0.11504,-0.17495 -0.27494,-0.33837 -0.46364,-0.49283 h 1.65596 c 0.14489,0.22452 0.29707,0.53698 0.3452,0.75266 0.20724,0.86401 0.13419,2.01981 -0.40773,2.82852"
         inkscape:connector-curvature="0"
         style="fill:#0a0b09;fill-rule:evenodd;stroke:none;stroke-width:0.26458332" />
      <path
         id="Fill-10"
         d="m 279.3523,339.5282 c 1.2523,-1.46139 3.59743,-1.37384 4.96271,-0.42574 0.0591,0.0391 0.38009,0.26908 0.43457,0.31205 l 1.68077,-0.48138 c 0,0 -1.96931,1.88856 -1.98383,1.88856 -0.79907,-1.32017 -3.31172,-1.88279 -4.06102,-0.4252 -0.38531,0.74932 -0.29904,1.58697 0.64726,2.1422 v 1.42485 c -0.15816,-0.0672 -0.31813,-0.13255 -0.46699,-0.20827 -2.33187,-1.1819 -2.01895,-3.28577 -1.21347,-4.22707"
         inkscape:connector-curvature="0"
         style="fill:#0a0b09;fill-rule:evenodd;stroke:none;stroke-width:0.26458332" />
    </g>
  </g>
</svg>
