<?xml version="1.0" encoding="UTF-8" standalone="no"?>
<!-- Created with Inkscape (http://www.inkscape.org/) -->

<svg
   xmlns:dc="http://purl.org/dc/elements/1.1/"
   xmlns:cc="http://creativecommons.org/ns#"
   xmlns:rdf="http://www.w3.org/1999/02/22-rdf-syntax-ns#"
   xmlns:svg="http://www.w3.org/2000/svg"
   xmlns="http://www.w3.org/2000/svg"
   xmlns:sodipodi="http://sodipodi.sourceforge.net/DTD/sodipodi-0.dtd"
   xmlns:inkscape="http://www.inkscape.org/namespaces/inkscape"
   width="43.938358"
   height="54.7803"
   viewBox="0 0 11.625357 14.493954"
   version="1.1"
   id="svg11370"
   inkscape:version="0.92.0 r15299"
   sodipodi:docname="w hotels.svg">
  <defs
     id="defs11364">
    <clipPath
       id="clipPath9571"
       clipPathUnits="userSpaceOnUse">
      <path
         inkscape:connector-curvature="0"
         id="path9569"
         d="m 510.8018,56.42725 h 54.49925 v 52.36227 H 510.8018 Z" />
    </clipPath>
  </defs>
  <sodipodi:namedview
     id="base"
     pagecolor="#ffffff"
     bordercolor="#666666"
     borderopacity="1.0"
     inkscape:pageopacity="0.0"
     inkscape:pageshadow="2"
     inkscape:zoom="9.910696"
     inkscape:cx="21.469095"
     inkscape:cy="26.890156"
     inkscape:document-units="mm"
     inkscape:current-layer="layer1"
     showgrid="false"
     fit-margin-top="0"
     fit-margin-left="0"
     fit-margin-right="0"
     fit-margin-bottom="0"
     units="px"
     inkscape:window-width="1280"
     inkscape:window-height="744"
     inkscape:window-x="-4"
     inkscape:window-y="-4"
     inkscape:window-maximized="1" />
  <metadata
     id="metadata11367">
    <rdf:RDF>
      <cc:Work
         rdf:about="">
        <dc:format>image/svg+xml</dc:format>
        <dc:type
           rdf:resource="http://purl.org/dc/dcmitype/StillImage" />
        <dc:title></dc:title>
      </cc:Work>
    </rdf:RDF>
  </metadata>
  <g
     inkscape:label="Layer 1"
     inkscape:groupmode="layer"
     id="layer1"
     transform="translate(-45.7244,-217.80526)">
    <g
       id="g11461"
       transform="translate(0.13229115,-0.13228772)">
      <path
         inkscape:connector-curvature="0"
         id="path9561"
         style="fill:#7b7876;fill-opacity:1;fill-rule:nonzero;stroke:none;stroke-width:0.35277778"
         d="m 46.775802,218.31174 h 1.24044 l 1.53592,3.65891 1.83063,-3.90081 1.8468,3.90081 1.56746,-3.65651 1.23701,-0.002 -2.82063,6.39443 -1.82481,-4.02984 -1.85533,4.01714 -2.75749,-6.38173 z" />
      <path
         inkscape:connector-curvature="0"
         id="path9563"
         style="fill:#7b7876;fill-opacity:1;fill-rule:nonzero;stroke:none;stroke-width:0.35277778"
         d="m 46.840252,228.27839 h -0.87707 v 0.73809 h -0.21516 v -1.61516 h 0.21516 v 0.68765 h 0.87707 v -0.68765 h 0.21721 v 1.61516 h -0.21721 z" />
      <path
         inkscape:connector-curvature="0"
         id="path9573"
         style="fill:#7b7876;fill-opacity:1;fill-rule:nonzero;stroke:none;stroke-width:0.35277778"
         d="m 49.225004,228.19666 c 0.0021,0.33113 -0.142064,0.69177 -0.575804,0.69177 -0.415537,0 -0.582648,-0.33765 -0.582648,-0.67599 0,-0.36338 0.174343,-0.67632 0.580602,-0.67632 0.371969,0 0.575804,0.26971 0.57785,0.66054 m 0.232974,-0.002 c 0,-0.52569 -0.358563,-0.83177 -0.810824,-0.83177 -0.399768,0 -0.812906,0.24843 -0.812906,0.84755 0,0.50236 0.314995,0.84721 0.806062,0.84721 0.534247,0 0.817668,-0.37951 0.817668,-0.86299" />
      <path
         inkscape:connector-curvature="0"
         id="path9575"
         style="fill:#7b7876;fill-opacity:1;fill-rule:nonzero;stroke:none;stroke-width:0.35277778"
         d="m 50.766819,227.59098 v 1.42541 h -0.216852 v -1.42541 h -0.484505 v -0.18907 h 1.183146 v 0.18907 z" />
      <path
         inkscape:connector-curvature="0"
         id="path9577"
         style="fill:#7b7876;fill-opacity:1;fill-rule:nonzero;stroke:none;stroke-width:0.35277778"
         d="m 52.321758,228.28083 v 0.54834 h 0.931968 v 0.18701 h -1.139225 v -1.61276 h 1.111461 v 0.1901 h -0.904204 v 0.4979 h 0.785812 v 0.18941 z" />
      <path
         inkscape:connector-curvature="0"
         id="path9579"
         style="fill:#7b7876;fill-opacity:1;fill-rule:nonzero;stroke:none;stroke-width:0.35277778"
         d="m 54.388859,228.82444 h 0.78165 v 0.19181 h -0.995786 v -1.61482 h 0.214136 z" />
      <path
         inkscape:connector-curvature="0"
         id="path9581"
         style="fill:#7b7876;fill-opacity:1;fill-rule:nonzero;stroke:none;stroke-width:0.35277778"
         d="m 56.388015,228.27184 c -0.233009,-0.048 -0.575803,-0.12593 -0.575803,-0.45878 0,-0.16024 0.0865,-0.26044 0.148942,-0.31363 0.14344,-0.12318 0.319441,-0.13657 0.430989,-0.13657 0.114265,0 0.287549,0.0113 0.43441,0.11873 0.160232,0.11667 0.192159,0.28069 0.207928,0.37917 l -0.216853,0.0137 c -0.0028,-0.0508 -0.0089,-0.17809 -0.130386,-0.26731 -0.08237,-0.0594 -0.184962,-0.0779 -0.288255,-0.0779 -0.193852,0 -0.36509,0.0799 -0.36509,0.25358 0,0.17809 0.178082,0.21927 0.317394,0.25118 l 0.178082,0.0463 c 0.12319,0.0292 0.18976,0.0432 0.253577,0.0704 0.242605,0.10019 0.278659,0.29441 0.278659,0.4025 0,0.15029 -0.0611,0.29167 -0.205211,0.39015 -0.155116,0.105 -0.340042,0.11426 -0.439208,0.11426 -0.145485,0 -0.645795,-0.0233 -0.682519,-0.5552 l 0.230611,-0.0295 c 0.0021,0.0611 0.0089,0.20314 0.130386,0.3102 0.09126,0.0803 0.212725,0.10775 0.331118,0.10775 0.227859,0 0.401814,-0.11221 0.401814,-0.32221 0,-0.18735 -0.148908,-0.23711 -0.3054,-0.26937 z" />
      <path
         inkscape:connector-curvature="0"
         id="path9583"
         style="fill:#7b7876;fill-opacity:1;fill-rule:nonzero;stroke:none;stroke-width:0.35277778"
         d="m 46.960488,231.28753 -0.229552,0.77069 h -0.0028 l -0.248108,-0.77069 h -0.134479 l -0.248109,0.77069 h -0.0028 l -0.230575,-0.77069 H 45.7244 l 0.304024,0.98687 h 0.128693 l 0.253224,-0.80638 h 0.0028 l 0.254953,0.80638 h 0.128658 l 0.304024,-0.98687 h -0.140335 z" />
      <path
         inkscape:connector-curvature="0"
         id="path9585"
         style="fill:#7b7876;fill-opacity:1;fill-rule:nonzero;stroke:none;stroke-width:0.35277778"
         d="m 47.945867,231.26258 c 0.307799,0 0.496182,0.21069 0.496182,0.51814 0,0.3078 -0.188383,0.51849 -0.496182,0.51849 -0.307799,0 -0.496182,-0.21069 -0.496182,-0.51849 0,-0.30745 0.188383,-0.51814 0.496182,-0.51814 m 0,0.93128 c 0.243981,0 0.354824,-0.19525 0.354824,-0.41314 0,-0.21755 -0.110843,-0.41279 -0.354824,-0.41279 -0.243946,0 -0.354789,0.19524 -0.354789,0.41279 0,0.21789 0.110843,0.41314 0.354789,0.41314" />
      <path
         inkscape:connector-curvature="0"
         id="path9587"
         style="fill:#7b7876;fill-opacity:1;fill-rule:nonzero;stroke:none;stroke-width:0.35277778"
         d="m 48.940877,231.28753 h 0.44644 c 0.154764,0 0.316724,0.0597 0.316724,0.28412 0,0.12593 -0.0563,0.24809 -0.228212,0.27588 l 0.271427,0.42687 h -0.157833 l -0.265924,-0.41898 h -0.252236 v 0.41898 h -0.130386 z m 0.130386,0.45466 h 0.295099 c 0.121814,0 0.207962,-0.0388 0.207962,-0.17054 0,-0.13074 -0.08615,-0.17054 -0.207962,-0.17054 h -0.295099 z" />
      <path
         inkscape:connector-curvature="0"
         id="path9589"
         style="fill:#7b7876;fill-opacity:1;fill-rule:nonzero;stroke:none;stroke-width:0.35277778"
         d="m 50.225623,231.28753 h 0.130069 v 0.87295 h 0.492054 v 0.11392 h -0.622123 z" />
      <path
         inkscape:connector-curvature="0"
         id="path9591"
         style="fill:#7b7876;fill-opacity:1;fill-rule:nonzero;stroke:none;stroke-width:0.35277778"
         d="m 51.356205,231.28753 h 0.372322 c 0.300919,0 0.436809,0.20245 0.436809,0.49892 0,0.28138 -0.141358,0.48795 -0.436809,0.48795 h -0.372322 z m 0.130069,0.87295 h 0.220275 c 0.234032,0 0.317429,-0.15785 0.317429,-0.38638 0,-0.22476 -0.08752,-0.37299 -0.306458,-0.37299 h -0.231246 z" />
      <path
         inkscape:connector-curvature="0"
         id="path9593"
         style="fill:#7b7876;fill-opacity:1;fill-rule:nonzero;stroke:none;stroke-width:0.35277778"
         d="m 52.569161,231.28753 h 0.140688 l 0.229905,0.77069 h 0.0028 l 0.247403,-0.77069 h 0.13522 l 0.247403,0.77069 h 0.0035 l 0.229552,-0.77069 h 0.140688 l -0.304377,0.98687 h -0.129011 l -0.254247,-0.80672 h -0.0028 l -0.253576,0.80672 h -0.129364 l -0.303706,-0.98687 z" />
      <path
         inkscape:connector-curvature="0"
         id="path9595"
         style="fill:#7b7876;fill-opacity:1;fill-rule:nonzero;stroke:none;stroke-width:0.35277778"
         d="M 54.423467,232.27412 H 54.55386 V 231.2876 H 54.423467 Z" />
      <path
         inkscape:connector-curvature="0"
         id="path9597"
         style="fill:#7b7876;fill-opacity:1;fill-rule:nonzero;stroke:none;stroke-width:0.35277778"
         d="m 55.126129,231.28753 h 0.372287 c 0.300602,0 0.436492,0.20245 0.436492,0.49892 0,0.28138 -0.140688,0.48795 -0.436492,0.48795 h -0.372287 z m 0.130387,0.87295 h 0.219604 c 0.234033,0 0.3181,-0.15785 0.3181,-0.38638 0,-0.22476 -0.08752,-0.37299 -0.307128,-0.37299 h -0.230576 z" />
      <path
         inkscape:connector-curvature="0"
         id="path9599"
         style="fill:#7b7876;fill-opacity:1;fill-rule:nonzero;stroke:none;stroke-width:0.35277778"
         d="m 56.378314,231.28753 h 0.692785 v 0.11358 h -0.562398 v 0.30471 h 0.488985 v 0.11392 h -0.488985 v 0.34074 h 0.576474 v 0.11392 h -0.706861 z" />
    </g>
  </g>
</svg>
